<svg xmlns="http://www.w3.org/2000/svg" width="158.177" height="184.558" viewBox="0 0 158.177 184.558">
  <defs>
    <style>
      .cls-1 {
        fill: #f28f2a;
      }
    </style>
  </defs>
  <g id="组_12060" data-name="组 12060" transform="translate(-2.803 -2.803)">
    <path id="路径_10180" data-name="路径 10180" class="cls-1" d="M1672.245,828.545a253.017,253.017,0,0,0-3.845-45.475,3.9,3.9,0,0,0,.006-1.42l-3.767-19.224a3.82,3.82,0,0,0-2.081-2.706c-4.713-14.316-9.454-21.282-9.846-21.844a3.738,3.738,0,0,0-3.064-1.61H1536.663a3.743,3.743,0,0,0-3.064,1.61c-.391.563-5.135,7.528-9.846,21.844a3.819,3.819,0,0,0-2.081,2.706l-3.764,19.224a3.881,3.881,0,0,0,0,1.425,270.971,270.971,0,0,0,0,90.94,3.874,3.874,0,0,0,0,1.423l3.764,19.225a3.821,3.821,0,0,0,2.081,2.706c4.711,14.315,9.455,21.281,9.846,21.843a3.745,3.745,0,0,0,3.064,1.612h112.986a3.739,3.739,0,0,0,3.064-1.612c.392-.562,5.133-7.528,9.846-21.843a3.822,3.822,0,0,0,2.081-2.706l3.767-19.225a3.9,3.9,0,0,0-.006-1.42A253,253,0,0,0,1672.245,828.545Zm-30.964,84.589a136.8,136.8,0,0,0,4.732-15.379h8.36a94.486,94.486,0,0,1-6.807,15.379Zm-88.091,0a116.1,116.1,0,0,1-5.048-15.379h18.373c.828,6.975,1.644,12.063,2.249,15.379Zm-14.444,0a94.575,94.575,0,0,1-6.807-15.379h8.358a137.909,137.909,0,0,0,4.733,15.379Zm6.284-169.178a138,138,0,0,0-4.733,15.379h-8.358a94.589,94.589,0,0,1,6.807-15.379Zm88.092,0a116.4,116.4,0,0,1,5.048,15.379H1619.8c-.828-6.99-1.644-12.068-2.247-15.379Zm14.444,0a94.356,94.356,0,0,1,6.807,15.379h-8.36a137.51,137.51,0,0,0-4.73-15.379ZM1643.9,890.064H1528.454l-2.261-11.536H1660.12l-2.258,11.536H1643.9Zm-122.3-61.519a245.187,245.187,0,0,1,3.45-42.3h10.328a362.038,362.038,0,0,0,0,84.589H1525.05A245.154,245.154,0,0,1,1521.6,828.545Zm20.81-61.52h115.452l2.258,11.534H1526.193l2.261-11.534h13.956Zm103.473,61.52a326.6,326.6,0,0,1-2.579,42.294h-21.2c.6-10.167,1.04-22.055,1.141-35.8a3.827,3.827,0,0,0-3.739-3.881c-.007,0-.018,0-.027,0a3.834,3.834,0,0,0-3.767,3.808c-.107,13.928-.559,25.864-1.153,35.873H1571.75c-.7-11.656-1.19-25.707-1.19-42.294,0-16.729.5-30.8,1.189-42.3h42.818c.329,5.487.611,11.512.808,18.111a3.79,3.79,0,0,0,3.767,3.728h.149a3.815,3.815,0,0,0,3.615-3.959c-.2-6.484-.474-12.427-.8-17.88H1643.3A326.627,326.627,0,0,1,1645.882,828.545Zm-105.453,0a326.637,326.637,0,0,1,2.578-42.3h21.186c-.691,11.72-1.165,25.751-1.165,42.3s.473,30.575,1.165,42.294h-21.186A326.6,326.6,0,0,1,1540.43,828.545Zm110.505,42.294a361.825,361.825,0,0,0,0-84.589h10.327a260.78,260.78,0,0,1,0,84.589ZM1611.8,756.066c.132,1.01.271,2.11.41,3.268h-38.089c.88-7.266,1.736-12.322,2.314-15.379h33.443C1610.329,746.3,1611.009,750.259,1611.8,756.066Zm-45.284,3.268h-18.373a116.171,116.171,0,0,1,5.048-15.379h15.573C1568.159,747.274,1567.343,752.359,1566.515,759.334Zm9.543,151.8c-.5-2.835-1.208-7.28-1.944-13.38h38.1c-.9,7.276-1.757,12.35-2.338,15.379h-33.443C1576.322,912.557,1576.21,911.9,1576.059,911.134Zm43.723-13.38h18.389a116.331,116.331,0,0,1-5.048,15.379h-15.585C1618.138,909.814,1618.951,904.732,1619.782,897.754Zm3.467-78.168a3.855,3.855,0,0,1-1.091,2.729,3.722,3.722,0,0,1-2.639,1.152h-.036a3.782,3.782,0,0,1-3.767-3.8v-.039a3.963,3.963,0,0,1,1.052-2.691,3.735,3.735,0,0,1,2.65-1.152l.025,0A3.87,3.87,0,0,1,1623.249,819.585Z" transform="translate(-1511.265 -733.463)"/>
  </g>
</svg>
